<svg width="129" height="38" viewBox="0 0 129 38" fill="none" xmlns="http://www.w3.org/2000/svg">
<path d="M0.243366 20.21C0.243366 22.16 1.50337 23.42 3.45337 23.42C5.46337 23.42 6.66337 22.16 6.66337 20.21C6.66337 18.2 5.46337 17 3.45337 17C1.50337 17 0.243366 18.2 0.243366 20.21Z" fill="#FEC430"/>
<path d="M50.5876 18.32H48.1276C46.0576 18.29 44.0776 17.93 42.1576 17.33L35.7676 14.81L33.9976 19.19L41.0176 21.92C41.7976 22.19 42.3676 22.91 42.3676 23.75C42.3676 24.68 41.5576 25.46 40.7176 25.46H18.3976C17.4676 25.46 16.7476 24.77 16.7476 23.84V17H12.0676V23.84C12.0676 27.35 14.8576 30.14 18.3976 30.14H40.7176C44.2276 30.14 47.0476 27.29 47.0476 23.75C47.0476 23.45 47.0176 23.27 47.0176 22.94C47.3476 23 47.6776 23 48.0076 23H50.5876V18.32ZM26.1376 31.88C24.6976 31.88 23.5276 33.05 23.5276 34.46C23.5276 35.9 24.6976 37.07 26.1376 37.07C27.5776 37.07 28.7476 35.9 28.7476 34.46C28.7476 33.05 27.5776 31.88 26.1376 31.88ZM32.6176 31.88C31.1776 31.88 30.0076 33.05 30.0076 34.46C30.0076 35.9 31.1776 37.07 32.6176 37.07C34.0576 37.07 35.2276 35.9 35.2276 34.46C35.2276 33.05 34.0576 31.88 32.6176 31.88ZM53.7971 0.199998C52.3571 0.199998 51.1871 1.37 51.1871 2.78C51.1871 4.22 52.3571 5.39 53.7971 5.39C55.2371 5.39 56.4071 4.22 56.4071 2.78C56.4071 1.37 55.2371 0.199998 53.7971 0.199998ZM60.2771 0.199998C58.8371 0.199998 57.6671 1.37 57.6671 2.78C57.6671 4.22 58.8371 5.39 60.2771 5.39C61.7171 5.39 62.8871 4.22 62.8871 2.78C62.8871 1.37 61.7171 0.199998 60.2771 0.199998ZM53.9171 23C56.9771 23 59.4371 20.51 59.4371 17.51V8H54.7571V17.51C54.7571 17.96 54.4571 18.32 53.9471 18.32H49.9871V23H53.9171ZM87.4501 18.32C86.4601 18.32 85.5901 17.57 85.4101 16.61V0.349998H80.7001V16.58C80.7001 17.54 79.9201 18.32 78.9601 18.32H73.0201V3.86H68.3401V18.32H63.0301V23H79.5001C80.9701 23 82.2901 22.46 83.3401 21.59C84.4801 22.46 85.8901 23 87.4501 23H89.1901L89.2201 18.32H87.4501ZM114.07 23V18.32H113.41C112.24 18.32 112.24 18.17 112.24 17.54V16.88C112.24 14.33 111.25 12.17 109.33 10.67C106.84 8.63 103.06 8.03 99.5497 8C95.3497 7.97 91.5097 8.78 90.8197 8.93L91.8397 13.49C95.9497 12.56 103.57 11.96 106.45 14.3C107.23 14.9 107.59 15.71 107.59 16.88V17.54C107.59 17.84 107.62 18.08 107.65 18.32H88.6297V23H114.07ZM120.473 29.51C122.843 29.24 124.643 28.46 125.963 27.35C127.163 26.3 128.603 24.38 128.603 20.93V8H123.893V20.93C123.893 22.25 123.593 23.15 122.903 23.72C121.433 25.25 116.693 24.8 115.853 24.65L115.133 29.27C116.273 29.66 118.703 29.72 120.473 29.51Z" fill="white"/>
</svg>
