<svg width="112" height="33" viewBox="0 0 112 33" fill="none" xmlns="http://www.w3.org/2000/svg">
<path d="M0.677581 17.582C0.677581 15.84 1.76958 14.8 3.45958 14.8C5.20158 14.8 6.24158 15.84 6.24158 17.582C6.24158 19.272 5.20158 20.364 3.45958 20.364C1.76958 20.364 0.677581 19.272 0.677581 17.582Z" fill="#FEC430"/>
<path d="M44.3092 15.944V20H42.0732C41.7872 20 41.5012 20 41.2152 19.948C41.2152 20.234 41.2412 20.39 41.2412 20.65C41.2412 23.718 38.7972 26.188 35.7552 26.188H16.4112C13.3432 26.188 10.9252 23.77 10.9252 20.728V14.8H14.9812V20.728C14.9812 21.534 15.6052 22.132 16.4112 22.132H35.7552C36.4832 22.132 37.1852 21.456 37.1852 20.65C37.1852 19.922 36.6912 19.298 36.0152 19.064L29.9312 16.698L31.4652 12.902L37.0032 15.086C38.6672 15.606 40.3832 15.918 42.1772 15.944H44.3092ZM23.1192 27.696C24.3672 27.696 25.3812 28.71 25.3812 29.932C25.3812 31.18 24.3672 32.194 23.1192 32.194C21.8712 32.194 20.8572 31.18 20.8572 29.932C20.8572 28.71 21.8712 27.696 23.1192 27.696ZM28.7352 27.696C29.9832 27.696 30.9972 28.71 30.9972 29.932C30.9972 31.18 29.9832 32.194 28.7352 32.194C27.4872 32.194 26.4732 31.18 26.4732 29.932C26.4732 28.71 27.4872 27.696 28.7352 27.696ZM47.0908 0.239999C48.3388 0.239999 49.3528 1.254 49.3528 2.476C49.3528 3.724 48.3388 4.738 47.0908 4.738C45.8428 4.738 44.8288 3.724 44.8288 2.476C44.8288 1.254 45.8428 0.239999 47.0908 0.239999ZM52.7068 0.239999C53.9548 0.239999 54.9688 1.254 54.9688 2.476C54.9688 3.724 53.9548 4.738 52.7068 4.738C51.4588 4.738 50.4448 3.724 50.4448 2.476C50.4448 1.254 51.4588 0.239999 52.7068 0.239999ZM47.1948 20H43.7888V15.944H47.2208C47.6628 15.944 47.9228 15.632 47.9228 15.242V7H51.9788V15.242C51.9788 17.842 49.8468 20 47.1948 20ZM76.2567 15.944H77.7907L77.7647 20H76.2567C74.9047 20 73.6827 19.532 72.6947 18.778C71.7847 19.532 70.6407 20 69.3667 20H55.0927V15.944H59.6947V3.412H63.7507V15.944H68.8987C69.7307 15.944 70.4067 15.268 70.4067 14.436V0.369999H74.4887V14.462C74.6447 15.294 75.3987 15.944 76.2567 15.944ZM99.3271 20H77.2791V15.944H93.7631C93.7371 15.736 93.7111 15.528 93.7111 15.268V14.696C93.7111 13.682 93.3991 12.98 92.7231 12.46C90.2271 10.432 83.6231 10.952 80.0611 11.758L79.1771 7.806C79.7751 7.676 83.1031 6.974 86.7431 7C89.7851 7.026 93.0611 7.546 95.2191 9.314C96.8831 10.614 97.7411 12.486 97.7411 14.696V15.268C97.7411 15.814 97.7411 15.944 98.7551 15.944H99.3271V20ZM104.876 25.642C103.342 25.824 101.236 25.772 100.248 25.434L100.872 21.43C101.6 21.56 105.708 21.95 106.982 20.624C107.58 20.13 107.84 19.35 107.84 18.206V7H111.922V18.206C111.922 21.196 110.674 22.86 109.634 23.77C108.49 24.732 106.93 25.408 104.876 25.642Z" fill="white"/>
</svg>
