<svg width="185" height="94" viewBox="0 0 185 94" fill="none" xmlns="http://www.w3.org/2000/svg">
<g filter="url(#filter0_d_102_43)">
<path d="M28.2434 40.21C28.2434 38.2 29.5034 37 31.4534 37C33.4634 37 34.6634 38.2 34.6634 40.21C34.6634 42.16 33.4634 43.42 31.4534 43.42C29.5034 43.42 28.2434 42.16 28.2434 40.21Z" fill="#FEC430"/>
<path d="M78.5876 38.32V43H76.0076C75.6776 43 75.3476 43 75.0176 42.94C75.0176 43.27 75.0476 43.45 75.0476 43.75C75.0476 47.29 72.2276 50.14 68.7176 50.14H46.3976C42.8576 50.14 40.0676 47.35 40.0676 43.84V37H44.7476V43.84C44.7476 44.77 45.4676 45.46 46.3976 45.46H68.7176C69.5576 45.46 70.3676 44.68 70.3676 43.75C70.3676 42.91 69.7976 42.19 69.0176 41.92L61.9976 39.19L63.7676 34.81L70.1576 37.33C72.0776 37.93 74.0576 38.29 76.1276 38.32H78.5876ZM54.1376 51.88C55.5776 51.88 56.7476 53.05 56.7476 54.46C56.7476 55.9 55.5776 57.07 54.1376 57.07C52.6976 57.07 51.5276 55.9 51.5276 54.46C51.5276 53.05 52.6976 51.88 54.1376 51.88ZM60.6176 51.88C62.0576 51.88 63.2276 53.05 63.2276 54.46C63.2276 55.9 62.0576 57.07 60.6176 57.07C59.1776 57.07 58.0076 55.9 58.0076 54.46C58.0076 53.05 59.1776 51.88 60.6176 51.88ZM81.7971 20.2C83.2371 20.2 84.4071 21.37 84.4071 22.78C84.4071 24.22 83.2371 25.39 81.7971 25.39C80.3571 25.39 79.1871 24.22 79.1871 22.78C79.1871 21.37 80.3571 20.2 81.7971 20.2ZM88.2771 20.2C89.7171 20.2 90.8871 21.37 90.8871 22.78C90.8871 24.22 89.7171 25.39 88.2771 25.39C86.8371 25.39 85.6671 24.22 85.6671 22.78C85.6671 21.37 86.8371 20.2 88.2771 20.2ZM81.9171 43H77.9871V38.32H81.9471C82.4571 38.32 82.7571 37.96 82.7571 37.51V28H87.4371V37.51C87.4371 40.51 84.9771 43 81.9171 43ZM115.45 38.32H117.22L117.19 43H115.45C113.89 43 112.48 42.46 111.34 41.59C110.29 42.46 108.97 43 107.5 43H91.0301V38.32H96.3401V23.86H101.02V38.32H106.96C107.92 38.32 108.7 37.54 108.7 36.58V20.35H113.41V36.61C113.59 37.57 114.46 38.32 115.45 38.32ZM142.07 43H116.63V38.32H135.65C135.62 38.08 135.59 37.84 135.59 37.54V36.88C135.59 35.71 135.23 34.9 134.45 34.3C131.57 31.96 123.95 32.56 119.84 33.49L118.82 28.93C119.51 28.78 123.35 27.97 127.55 28C131.06 28.03 134.84 28.63 137.33 30.67C139.25 32.17 140.24 34.33 140.24 36.88V37.54C140.24 38.17 140.24 38.32 141.41 38.32H142.07V43ZM148.473 49.51C146.703 49.72 144.273 49.66 143.133 49.27L143.853 44.65C144.693 44.8 149.433 45.25 150.903 43.72C151.593 43.15 151.893 42.25 151.893 40.93V28H156.603V40.93C156.603 44.38 155.163 46.3 153.963 47.35C152.643 48.46 150.843 49.24 148.473 49.51Z" fill="white"/>
</g>
<defs>
<filter id="filter0_d_102_43" x="0.243408" y="0.200195" width="184.359" height="92.8696" filterUnits="userSpaceOnUse" color-interpolation-filters="sRGB">
<feFlood flood-opacity="0" result="BackgroundImageFix"/>
<feColorMatrix in="SourceAlpha" type="matrix" values="0 0 0 0 0 0 0 0 0 0 0 0 0 0 0 0 0 0 127 0" result="hardAlpha"/>
<feOffset dy="8"/>
<feGaussianBlur stdDeviation="14"/>
<feComposite in2="hardAlpha" operator="out"/>
<feColorMatrix type="matrix" values="0 0 0 0 0.145833 0 0 0 0 0.145833 0 0 0 0 0.145833 0 0 0 0.1 0"/>
<feBlend mode="normal" in2="BackgroundImageFix" result="effect1_dropShadow_102_43"/>
<feBlend mode="normal" in="SourceGraphic" in2="effect1_dropShadow_102_43" result="shape"/>
</filter>
</defs>
</svg>
